<?xml version="1.0" standalone="no"?>
<!DOCTYPE svg PUBLIC "-//W3C//DTD SVG 20010904//EN"
 "http://www.w3.org/TR/2001/REC-SVG-20010904/DTD/svg10.dtd">
<svg version="1.0" xmlns="http://www.w3.org/2000/svg"
 width="615.000000pt" height="280.000000pt" viewBox="0 0 615.000000 280.000000"
 preserveAspectRatio="xMidYMid meet">

<g transform="translate(0.000000,280.000000) scale(0.100000,-0.100000)"
fill="#000000" stroke="none">
<path d="M0 1400 l0 -1400 3075 0 3075 0 0 1400 0 1400 -3075 0 -3075 0 0
-1400z m370 1130 l0 -150 -150 0 -150 0 0 150 0 150 150 0 150 0 0 -150z m182
53 l13 -36 5 34 c3 21 11 34 20 34 12 0 16 -17 18 -77 3 -76 2 -78 -21 -78
-19 0 -27 8 -38 43 l-14 42 -3 -42 c-2 -29 -8 -43 -18 -43 -11 0 -14 16 -14
73 0 41 3 77 7 80 15 16 33 5 45 -30z m158 17 c22 -22 27 -88 10 -121 -12 -22
-68 -27 -88 -7 -7 7 -12 36 -12 64 0 43 4 56 22 68 30 21 44 20 68 -4z m122
-2 c21 -21 21 -23 5 -26 -10 -2 -25 2 -33 9 -17 14 -29 6 -21 -16 4 -8 16 -15
27 -15 28 0 46 -40 31 -69 -19 -34 -101 -25 -101 12 0 5 16 6 35 3 37 -7 50 9
18 21 -50 17 -67 58 -37 87 22 22 50 20 76 -6z m128 2 c0 -16 -7 -20 -30 -20
-20 0 -30 -5 -30 -15 0 -10 10 -15 31 -15 38 0 35 -24 -4 -28 -38 -5 -35 -32
3 -32 20 0 30 -5 30 -15 0 -11 -12 -15 -50 -15 l-50 0 0 73 c0 41 3 77 7 80 3
4 26 7 50 7 36 0 43 -3 43 -20z m116 -1 c25 -21 13 -62 -23 -79 -22 -10 -33
-22 -33 -37 0 -16 -6 -23 -20 -23 -18 0 -20 7 -20 73 0 41 3 77 8 81 10 10 70
0 88 -15z m124 1 c0 -11 -7 -20 -15 -20 -11 0 -15 -12 -15 -45 0 -33 4 -45 15
-45 8 0 15 -7 15 -15 0 -11 -12 -15 -50 -15 -38 0 -50 4 -50 15 0 8 7 15 15
15 22 0 21 79 -2 95 -25 19 -6 35 43 35 37 0 44 -3 44 -20z m108 4 c12 -8 22
-19 22 -25 0 -12 -37 -12 -45 1 -13 20 -25 -2 -25 -46 0 -45 13 -57 37 -33 18
18 35 1 23 -22 -12 -22 -68 -27 -88 -7 -7 7 -12 36 -12 64 0 43 4 56 22 68 12
9 27 16 33 16 6 0 21 -7 33 -16z m73 -20 l6 -29 11 28 c11 26 37 45 48 34 3
-3 -2 -21 -10 -42 -14 -32 -14 -41 -1 -72 19 -44 19 -43 -4 -43 -12 0 -24 12
-32 33 l-13 32 -3 -32 c-3 -25 -9 -33 -24 -33 -17 0 -19 7 -19 73 0 41 3 77 7
81 13 12 28 -1 34 -30z m284 -24 c6 -25 15 -57 18 -72 9 -34 -7 -37 -32 -6
-18 22 -41 18 -41 -8 0 -8 -7 -14 -15 -14 -18 0 -18 -4 1 81 14 62 18 70 37
67 15 -2 24 -15 32 -48z m136 26 c15 -32 -3 -64 -38 -68 -22 -2 -29 -9 -31
-30 -2 -16 -9 -28 -18 -28 -11 0 -14 17 -14 75 l0 75 45 0 c38 0 47 -4 56 -24z
m119 14 c0 -5 -7 -10 -15 -10 -11 0 -15 -12 -15 -50 0 -38 4 -50 15 -50 8 0
15 -7 15 -15 0 -11 -12 -15 -45 -15 -33 0 -45 4 -45 15 0 8 7 15 15 15 11 0
15 12 15 50 0 38 -4 50 -15 50 -8 0 -15 5 -15 10 0 6 20 10 45 10 25 0 45 -4
45 -10z m466 -52 c-9 -12 -16 -26 -16 -30 0 -13 28 -9 33 5 3 6 5 -1 5 -18 0
-16 -2 -24 -5 -17 -2 6 -13 12 -24 12 -24 0 -25 24 -1 55 22 29 29 24 8 -7z
m172 9 c2 -10 -4 -27 -14 -38 -16 -17 -16 -19 -1 -19 10 0 17 -4 17 -10 0 -5
-11 -10 -25 -10 -30 0 -32 11 -5 35 11 10 20 25 20 33 0 9 -7 13 -20 9 -20 -5
-26 3 -13 17 12 12 38 1 41 -17z m142 -21 c0 -17 5 -37 12 -44 9 -9 5 -12 -20
-12 -18 0 -32 5 -32 10 0 6 5 10 10 10 6 0 10 14 10 31 0 21 -4 28 -12 23 -9
-5 -9 -3 1 9 18 23 31 12 31 -27z m-400 -17 c0 -28 17 -23 24 7 4 15 9 24 12
22 6 -7 -17 -68 -26 -68 -4 0 -13 14 -19 31 -13 39 -14 42 -1 34 6 -3 10 -15
10 -26z m-770 -39 c0 -21 -24 -28 -35 -10 -8 14 3 30 21 30 8 0 14 -9 14 -20z
m940 10 c0 -5 -4 -10 -10 -10 -5 0 -10 5 -10 10 0 6 5 10 10 10 6 0 10 -4 10
-10z m150 0 c0 -5 -4 -10 -10 -10 -5 0 -10 5 -10 10 0 6 5 10 10 10 6 0 10 -4
10 -10z"/>
<path d="M192 2524 c17 -18 78 -29 78 -15 0 11 -26 22 -65 27 -27 4 -28 3 -13
-12z"/>
<path d="M666 2583 c-3 -3 -6 -26 -6 -50 0 -32 4 -43 15 -43 11 0 15 12 15 44
0 43 -10 63 -24 49z"/>
<path d="M1020 2565 c0 -10 7 -15 18 -13 21 4 19 22 -2 26 -10 2 -16 -3 -16
-13z"/>
<path d="M1626 2552 c-8 -24 -3 -37 12 -31 4 2 5 15 2 29 l-6 25 -8 -23z"/>
<path d="M1734 2575 c-7 -18 3 -35 22 -35 20 0 30 30 13 41 -20 12 -29 11 -35
-6z"/>
</g>
</svg>
